{"title":"Pipi Pikksukk - eesti keeles","uid":6952542,"size":734140416,"categoryP":"video","categoryS":"movies","magnet":"?xt=urn:btih:9c28116af99b61a2cfe3e724c3025bc4490aa9e3&amp;dn=Pipi+Pikksukk+-+eesti+keeles&amp;tr=udp%3A%2F%2Ftracker.openbittorrent.com%3A80&amp;tr=udp%3A%2F%2Fopen.demonii.com%3A1337&amp;tr=udp%3A%2F%2Ftracker.coppersurfer.tk%3A6969&amp;tr=udp%3A%2F%2Fexodus.desync.com%3A6969","seeders":2,"leechers":0,"uploader":"Freezer114","files":-1,"time":1326413299,"description":"      Kuidas oleks seilata koos isaga seitsmel merel ning seejÃƒÂ¤rel kolida vanasse tondilossi? Majja, kus sina otsustad kÃƒÂµike - vÃƒÂµid seal voodis hÃƒÂ¼pata, kÃƒÂµik segamini ajada ja iga pÃƒÂ¤evsÃƒÂ¼ÃƒÂ¼a! Ning sul oleksid oma ahv ja hobune. Sa oleksid nii pururikas kui ka kÃƒÂµige tugevam maailmas! MÃƒÂµtle, kui oleksid Pipi Pikksukk!\n      Joonisfilm Pipi Pikksukk pÃƒÂµhineb Astrid Lindgreni fantastilistel raamatutel maailma tugevaimast tÃƒÂ¼drukust.\n\n\n-------------------------------------------------------------------------------------\n\n\n\n\nGeneral\nComplete name Pipi.Pikksukk.1997.DVDRip.XviD-REK.avi\nFormat                           : AVI\nFormat/Info                      : Audio Video Interleave\nFile size                        : 700 MiB\nDuration                         : 1h 12mn\nOverall bit rate mode            : Variable\nOverall bit rate                 : 1 342 Kbps\nWriting application              : VirtualDubMod 1.5.4.1 (build 2178/release)\nWriting library                  : VirtualDubMod build 2178/release\n\nVideo\nID                               : 0\nFormat                           : MPEG-4 Visual\nFormat profile                   : Advanced Simple@L5\nFormat settings, BVOP            : 1\nFormat settings, QPel            : No\nFormat settings, GMC             : No warppoints\nFormat settings, Matrix          : Custom\nCodec ID                         : XVID\nCodec ID/Hint                    : XviD\nDuration                         : 1h 12mn\nBit rate                         : 1 213 Kbps\nWidth                            : 512 pixels\nHeight                           : 384 pixels\nDisplay aspect ratio             : 4:3\nFrame rate                       : 25.000 fps\nColor space                      : YUV\nChroma subsampling               : 4:2:0\nBit depth                        : 8 bits\nScan type                        : Progressive\nCompression mode                 : Lossy\nBits/(Pixel*Frame)               : 0.247\nStream size                      : 633 MiB (90%)\nWriting library                  : XviD 1.2.1 (UTC 2008-12-04)\n\nAudio\nID                               : 1\nFormat                           : MPEG Audio\nFormat version                   : Version 1\nFormat profile                   : Layer 3\nMode                             : Joint stereo\nMode extension                   : MS Stereo\nCodec ID                         : 55\nCodec ID/Hint                    : MP3\nDuration                         : 1h 12mn\nBit rate mode                    : Variable\nBit rate                         : 116 Kbps\nNominal bit rate                 : 128 Kbps\nChannel(s)                       : 2 channels\nSampling rate                    : 48.0 KHz\nCompression mode                 : Lossy\nStream size                      : 60.5 MiB (9%)\nAlignment                        : Aligned on interleaves\nInterleave, duration             : 24 ms (0.60 video frame)\nInterleave, preload duration     : 483 ms\nWriting library                  : LAME3.98r\nEncoding settings                : -m j -V 4 -q 2 -lowpass 17 --abr 128\nLanguage                         : Estonian\n","torrent":{"xt":"urn:btih:9c28116af99b61a2cfe3e724c3025bc4490aa9e3","amp;dn":"Pipi+Pikksukk+-+eesti+keeles","amp;tr":["udp%3A%2F%2Ftracker.openbittorrent.com%3A80","udp%3A%2F%2Fopen.demonii.com%3A1337","udp%3A%2F%2Ftracker.coppersurfer.tk%3A6969","udp%3A%2F%2Fexodus.desync.com%3A6969"],"infoHash":"9c28116af99b61a2cfe3e724c3025bc4490aa9e3","infoHashBuffer":{"type":"Buffer","data":[156,40,17,106,249,155,97,162,207,227,231,36,195,2,91,196,73,10,169,227]},"announce":[],"urlList":[]}}